<?xml version="1.0" encoding="utf-8"?>
<!-- Generator: Adobe Illustrator 22.1.0, SVG Export Plug-In . SVG Version: 6.00 Build 0)  -->
<svg version="1.1" id="Calque_1" xmlns="http://www.w3.org/2000/svg" xmlns:xlink="http://www.w3.org/1999/xlink" x="0px" y="0px"
	 viewBox="0 0 40 40" style="enable-background:new 0 0 40 40;" xml:space="preserve">
<style type="text/css">
	.st0{fill:#292929;}
</style>
<path class="st0" d="M20,6.9c4.3,0,4.8,0,6.5,0.1c1.6,0.1,2.4,0.3,3,0.5c0.7,0.3,1.3,0.6,1.8,1.2c0.6,0.6,0.9,1.1,1.2,1.8
	c0.2,0.6,0.5,1.4,0.5,3c0.1,1.7,0.1,2.2,0.1,6.5s0,4.8-0.1,6.5c-0.1,1.6-0.3,2.4-0.5,3c-0.3,0.7-0.6,1.3-1.2,1.8
	c-0.6,0.6-1.1,0.9-1.8,1.2c-0.6,0.2-1.4,0.5-3,0.5c-1.7,0.1-2.2,0.1-6.5,0.1s-4.8,0-6.5-0.1c-1.6-0.1-2.4-0.3-3-0.5
	c-0.7-0.3-1.3-0.6-1.8-1.2c-0.6-0.6-0.9-1.1-1.2-1.8c-0.2-0.6-0.5-1.4-0.6-3c-0.1-1.7-0.1-2.2-0.1-6.5s0-4.8,0.1-6.5
	c0.1-1.6,0.3-2.4,0.6-3c0.3-0.7,0.6-1.3,1.2-1.8c0.6-0.6,1.1-0.9,1.8-1.2C11.1,7.3,12,7,13.5,7C15.2,6.9,15.7,6.9,20,6.9L20,6.9z
	 M20,4c-4.3,0-4.9,0-6.6,0.1c-1.7,0.1-2.9,0.4-3.9,0.7c-1.1,0.4-1.9,1-2.8,1.8C5.8,7.6,5.2,8.5,4.8,9.5c-0.4,1-0.7,2.2-0.7,3.9
	C4,15.1,4,15.7,4,20s0,4.9,0.1,6.6c0.1,1.7,0.3,2.9,0.7,3.9c0.4,1.1,1,2,1.8,2.8c0.9,0.9,1.8,1.4,2.8,1.8c1,0.4,2.2,0.7,3.9,0.7
	C15.1,36,15.6,36,20,36s4.9,0,6.6-0.1c1.7-0.1,2.9-0.4,3.9-0.7c1-0.4,1.9-1,2.8-1.8s1.4-1.8,1.8-2.8c0.4-1,0.7-2.2,0.7-3.9
	C36,24.9,36,24.4,36,20s0-4.9-0.1-6.6c-0.1-1.7-0.4-2.9-0.7-3.9c-0.4-1.1-0.9-2-1.8-2.8c-0.9-0.9-1.8-1.4-2.8-1.8
	c-1-0.4-2.2-0.7-3.9-0.7C24.9,4,24.3,4,20,4L20,4L20,4z M20,11.8c-4.5,0-8.2,3.7-8.2,8.2s3.7,8.2,8.2,8.2s8.2-3.7,8.2-8.2
	C28.2,15.5,24.5,11.8,20,11.8z M20,25.3c-2.9,0-5.3-2.4-5.3-5.3s2.4-5.3,5.3-5.3s5.3,2.4,5.3,5.3S22.9,25.3,20,25.3z M30.5,11.5
	c0,1.1-0.9,1.9-1.9,1.9s-1.9-0.9-1.9-1.9s0.9-1.9,1.9-1.9S30.5,10.4,30.5,11.5z"/>
</svg>
